<?xml version="1.0" standalone="no"?>
<!DOCTYPE svg PUBLIC "-//W3C//DTD SVG 20010904//EN"
 "http://www.w3.org/TR/2001/REC-SVG-20010904/DTD/svg10.dtd">
<svg version="1.0" xmlns="http://www.w3.org/2000/svg"
 width="1663.000000pt" height="1663.000000pt" viewBox="0 0 1663.000000 1663.000000"
 preserveAspectRatio="xMidYMid meet">
<metadata>
Created by potrace 1.14, written by Peter Selinger 2001-2017
</metadata>
<g transform="translate(0.000000,1663.000000) scale(0.100000,-0.100000)"
fill="#000000" stroke="none">
<path d="M4146 15498 c-7 -13 -64 -111 -126 -218 -62 -107 -136 -235 -165
-285 -28 -49 -123 -214 -210 -365 -87 -151 -165 -286 -174 -300 -8 -14 -23
-38 -32 -55 -9 -16 -126 -219 -259 -450 -134 -231 -284 -492 -335 -580 -103
-179 -385 -668 -505 -875 -85 -146 -94 -163 -167 -290 -111 -193 -287 -497
-305 -525 -10 -16 -21 -37 -25 -45 -3 -8 -21 -39 -40 -68 -18 -29 -33 -54 -33
-55 0 -2 -48 -86 -106 -188 -59 -101 -115 -200 -126 -219 -11 -19 -29 -50 -41
-69 -19 -32 -19 -33 -1 -28 17 5 45 11 99 21 11 2 38 9 60 14 22 6 51 13 65
16 19 3 284 61 371 81 9 2 32 6 50 9 19 3 66 13 104 22 39 9 84 18 100 21 17
2 46 8 66 14 31 8 71 16 169 35 14 3 156 31 315 64 160 32 304 60 320 63 17 3
91 17 165 32 74 15 146 29 160 31 14 3 97 19 185 35 88 17 174 33 190 36 17 2
75 13 130 24 55 11 116 22 135 25 19 2 60 9 90 15 30 7 66 13 80 14 14 1 34 5
45 8 11 4 36 9 55 12 19 3 46 7 60 10 14 3 41 7 60 10 19 4 87 15 150 26 63
11 126 22 140 24 34 5 85 13 145 25 28 5 66 12 85 14 19 3 44 7 55 10 11 2 42
7 68 10 27 4 57 9 67 11 23 4 80 14 128 20 20 3 60 10 87 15 28 5 68 12 90 15
23 3 50 7 60 9 11 2 56 9 100 16 44 6 91 13 105 16 14 2 57 9 95 14 39 6 81
13 95 15 14 2 90 14 170 25 80 12 156 23 170 25 122 19 161 25 200 30 25 3
106 14 180 25 74 10 158 22 185 25 28 4 79 11 115 16 36 6 85 12 110 15 25 2
56 7 70 9 14 3 50 7 80 11 30 3 63 8 74 10 10 2 44 6 75 9 31 4 68 8 82 11 31
5 57 8 234 29 72 8 153 18 180 21 28 4 64 8 80 10 17 1 50 6 75 9 25 3 63 8
85 10 45 4 125 13 170 20 17 2 55 7 85 10 30 3 96 10 145 15 50 5 117 12 150
15 69 7 137 14 180 20 17 2 66 7 110 11 44 3 88 8 98 10 10 2 46 6 80 8 92 8
188 17 227 21 19 2 71 6 115 10 44 3 91 8 105 10 14 2 59 6 100 10 41 3 102 8
135 11 33 2 87 7 120 9 95 8 165 14 230 20 33 3 92 7 130 10 164 11 233 16
285 20 30 3 92 7 136 10 45 3 110 7 145 10 35 2 109 7 164 10 55 3 125 7 155
10 30 2 111 7 180 10 69 3 149 8 179 10 29 2 122 6 205 10 83 3 185 8 226 10
41 2 161 7 265 10 105 4 219 8 255 10 170 8 880 18 1273 18 l438 -1 -22 37
c-12 20 -33 56 -47 81 -14 25 -36 62 -49 82 -12 21 -23 39 -23 41 0 2 -37 67
-82 143 -44 76 -95 164 -112 194 -42 74 -155 271 -167 290 -5 8 -36 62 -69
120 -33 58 -65 112 -70 120 -10 16 -49 85 -95 165 -49 88 -195 339 -205 355
-6 8 -13 22 -17 30 -4 8 -24 42 -45 76 -21 34 -38 64 -38 68 0 3 -11 25 -26
47 -14 22 -34 56 -45 75 -11 20 -54 95 -96 167 -250 432 -409 708 -432 748
-14 26 -60 106 -101 178 l-75 131 -4157 0 -4158 0 -14 -22z"/>
<path d="M15484 9938 c-117 -94 -301 -247 -340 -283 -6 -5 -44 -39 -84 -75
-233 -206 -612 -577 -847 -830 -112 -120 -125 -134 -193 -211 -36 -40 -69 -77
-75 -83 -5 -6 -39 -45 -75 -86 -36 -41 -69 -80 -75 -86 -5 -6 -28 -33 -50 -59
-22 -27 -45 -53 -50 -59 -19 -20 -150 -179 -256 -311 -298 -371 -618 -802
-889 -1195 -168 -245 -532 -799 -585 -892 -5 -10 -32 -53 -59 -95 -129 -206
-335 -552 -514 -863 -107 -187 -89 -155 -289 -520 -231 -422 -586 -1115 -785
-1535 -106 -222 -188 -397 -188 -400 0 -2 -22 -49 -49 -106 -26 -57 -59 -126
-71 -154 -12 -27 -36 -79 -52 -115 -16 -36 -36 -78 -43 -95 -7 -16 -22 -50
-33 -75 -11 -25 -41 -94 -67 -155 -26 -60 -58 -134 -71 -163 -13 -29 -24 -55
-24 -57 0 -2 -11 -28 -24 -57 -26 -56 -106 -248 -106 -254 0 -2 649 -4 1443
-4 l1444 0 14 27 c8 16 76 136 153 268 76 132 191 332 256 445 149 260 125
218 330 572 96 166 180 310 185 320 13 24 213 369 247 427 15 25 33 57 41 71
8 14 37 65 65 113 29 49 52 91 52 93 0 2 17 33 39 67 32 52 218 373 288 497
11 19 51 89 90 155 38 66 141 244 228 395 87 151 233 403 323 560 236 407 531
919 555 960 48 85 324 563 372 645 29 50 74 128 101 175 27 47 54 92 59 102 6
9 17 29 26 45 8 15 48 84 88 153 41 69 85 145 99 170 26 46 194 339 228 397
35 59 149 257 177 308 16 27 39 67 53 87 13 21 24 40 24 42 0 3 13 28 30 56
l30 51 -67 117 c-36 64 -74 128 -83 142 -10 14 -31 50 -48 80 -16 30 -94 165
-172 300 -78 135 -152 263 -165 285 -12 22 -88 155 -170 295 -81 140 -179 310
-217 378 -39 67 -74 125 -78 127 -4 3 -70 -46 -146 -107z"/>
<path d="M12615 9615 c-72 -34 -386 -175 -390 -175 -2 0 -43 -18 -92 -41 -48
-22 -104 -48 -123 -56 -81 -36 -118 -53 -175 -78 -33 -15 -114 -51 -180 -80
-104 -46 -290 -129 -485 -218 -30 -13 -134 -59 -230 -102 -96 -43 -200 -89
-230 -102 -30 -14 -116 -52 -190 -85 -74 -33 -160 -71 -190 -85 -30 -14 -181
-82 -335 -150 -154 -69 -305 -136 -335 -150 -30 -14 -116 -52 -190 -85 -74
-33 -168 -75 -208 -94 -41 -19 -76 -34 -78 -34 -2 0 -32 -13 -66 -29 -81 -36
-97 -44 -438 -196 -157 -70 -334 -150 -394 -177 -60 -26 -113 -47 -116 -46 -4
2 -77 84 -162 183 -151 175 -262 289 -361 370 -83 67 -231 174 -259 187 -16 7
-28 16 -28 20 0 5 -4 8 -10 8 -5 0 -33 15 -62 33 -80 51 -249 139 -378 196
-63 29 -124 56 -135 61 -85 40 -453 167 -635 219 -208 59 -510 130 -755 176
-53 10 -329 57 -355 60 -14 2 -54 8 -90 14 -36 6 -88 13 -116 16 -28 3 -60 7
-72 10 -11 2 -52 7 -89 10 -37 4 -75 9 -83 10 -8 2 -46 6 -85 10 -38 3 -86 8
-105 10 -32 4 -69 8 -185 19 -22 3 -83 7 -135 11 -52 3 -115 8 -140 10 -117
10 -288 20 -495 30 -572 27 -1400 23 -2110 -10 -189 -8 -325 -15 -390 -20 -33
-2 -116 -7 -184 -11 -69 -3 -132 -8 -140 -9 -9 -2 -30 -4 -48 -4 -32 -1 -48
-23 -144 -196 -9 -16 -81 -140 -159 -275 -79 -135 -154 -265 -167 -290 -14
-25 -39 -70 -58 -100 -36 -59 -35 -61 8 -135 17 -27 37 -63 47 -80 79 -140
778 -1348 797 -1377 12 -21 23 -39 23 -42 0 -2 30 -55 66 -117 73 -125 247
-426 274 -474 9 -17 50 -87 90 -155 40 -69 81 -140 91 -157 49 -87 350 -610
359 -623 8 -13 123 -213 199 -344 13 -23 47 -81 76 -131 29 -49 62 -106 72
-125 11 -19 78 -134 148 -255 70 -121 141 -245 158 -275 17 -30 58 -102 92
-160 34 -58 73 -125 87 -150 14 -25 48 -83 75 -130 27 -47 94 -161 148 -255
158 -274 311 -539 502 -870 99 -170 191 -330 205 -355 14 -25 83 -144 153
-265 70 -121 139 -240 153 -265 14 -25 72 -126 130 -225 58 -99 116 -200 130
-225 13 -25 29 -51 35 -57 7 -10 443 -13 2118 -13 l2109 0 1 23 c1 12 2 33 4
47 22 195 22 609 0 825 -3 32 -19 160 -20 165 -1 3 -5 30 -9 60 -9 70 -20 125
-51 275 -140 660 -445 1353 -873 1980 -83 122 -241 337 -293 400 -9 11 -52 63
-94 115 -43 52 -83 100 -89 105 -6 6 -31 33 -55 60 -99 112 -164 177 -382 380
-126 118 -290 269 -317 292 -15 12 -24 24 -22 26 13 10 161 97 166 97 4 0 26
14 51 30 24 17 46 30 48 30 1 0 97 55 211 121 115 67 234 135 264 152 30 16
60 33 65 37 6 4 55 34 110 65 123 71 424 245 603 349 74 43 155 89 180 103 26
14 54 32 63 39 8 8 18 14 20 14 5 0 151 83 334 190 50 29 105 61 122 71 38 22
379 219 503 292 47 27 103 59 125 72 22 12 96 55 165 95 200 116 242 141 290
168 25 14 126 73 225 130 234 136 478 278 535 310 25 14 57 33 72 43 14 11 28
19 31 19 3 0 38 19 79 43 40 24 93 55 118 69 25 14 198 114 385 223 187 109
356 206 375 217 19 11 49 27 65 37 17 10 158 92 315 183 157 91 310 180 340
198 30 18 71 42 90 52 127 72 527 303 535 310 14 12 5 9 -50 -17z"/>
</g>
</svg>
