<?xml version="1.0" encoding="utf-8"?>
<svg viewBox="448.604 0 1662.793 1440" xmlns="http://www.w3.org/2000/svg">
  <path fill="#8DC63F" d="M116.28,41.72c-2.93,2.26-5.75,4.8-8.44,7.53h-0.01C93.67,63.57,82.88,83.18,76.38,96.92h0.01 c-2.11,4.43-3.76,8.25-4.93,11.08h21.41l30.84-53.42L116.28,41.72z" transform="matrix(13.478099, 0, 0, 13.478099, 444.021, -15.634594)"/>
  <path fill="#8DC63F" d="M92.87,1.16H31.19L11.32,35.58c5-1.11,9.86-2.12,14.55-3.02l0,0c28.99-5.58,52.18-7.43,67.76-7.91v-0.01 c3.45-0.1,6.53-0.14,9.21-0.14c1.24,0,2.41,0.01,3.52,0.03L92.87,1.16z" transform="matrix(13.478099, 0, 0, 13.478099, 444.021, -15.634594)"/>
  <path fill="#1C75BC" d="M61.8,96.93l-0.01-0.01C58.92,84.71,50.12,76.41,50,76.3l-3.85-3.56l48.42-28.05L60.95,59.72l-1.89-2.2 c-5.8-6.75-19.71-10.32-40.23-10.32c-0.47,0-0.96,0-1.43,0.01l-0.01,0.01c-4.62,0.04-9.08,0.25-13.11,0.54l-3.94,6.82L31.19,108 h31.3c0.45-3.94,0.11-7.66-0.69-11.08V96.93z" transform="matrix(13.478099, 0, 0, 13.478099, 444.021, -15.634594)"/>
</svg>